<?xml version="1.0" standalone="no"?>
<!DOCTYPE svg PUBLIC "-//W3C//DTD SVG 20010904//EN"
 "http://www.w3.org/TR/2001/REC-SVG-20010904/DTD/svg10.dtd">
<svg version="1.0" xmlns="http://www.w3.org/2000/svg"
 width="80.000000pt" height="78.000000pt" viewBox="0 0 80.000000 78.000000"
 preserveAspectRatio="xMidYMid meet">
<metadata>
Created by potrace 1.16, written by Peter Selinger 2001-2019
</metadata>
<g transform="translate(0.000000,78.000000) scale(0.020050,-0.019797)"
fill="#000000" stroke="none">
<path d="M0 1965 l0 -1955 1995 0 1995 0 0 1955 0 1955 -1995 0 -1995 0 0
-1955z m2207 1540 c389 -55 724 -234 980 -523 587 -665 526 -1675 -138 -2261
-604 -534 -1504 -534 -2108 0 -664 586 -725 1596 -138 2261 352 398 886 597
1404 523z"/>
<path d="M1845 3459 c-421 -41 -818 -263 -1075 -599 -236 -309 -347 -692 -311
-1075 19 -201 53 -330 134 -510 170 -380 512 -688 910 -820 562 -186 1165 -45
1581 371 176 177 299 376 379 616 137 409 80 909 -146 1278 -125 204 -326 405
-522 522 -293 175 -620 250 -950 217z m355 -614 l0 -25 -205 0 -205 0 0 25 0
25 205 0 205 0 0 -25z m-116 -281 c9 -3 16 -12 16 -20 0 -10 13 -14 44 -14 25
0 48 -6 53 -12 4 -7 10 -37 13 -67 l5 -54 44 37 c34 28 51 36 75 34 l31 -3 3
-179 c3 -186 1 -195 -40 -196 -9 0 -39 18 -67 40 l-51 40 0 -53 c0 -64 -11
-77 -66 -77 -33 0 -43 -4 -47 -20 -5 -18 -14 -20 -102 -20 -88 0 -97 2 -102
20 -5 17 -15 20 -112 22 l-106 3 -3 112 c-3 108 -4 114 -27 129 -22 14 -25 23
-25 79 0 55 3 65 24 79 16 10 26 27 28 48 l3 33 178 3 c143 2 177 5 177 16 0
21 27 30 54 20z m116 -819 l0 -25 -205 0 -205 0 0 25 0 25 205 0 205 0 0 -25z
m-70 -409 c0 -128 3 -155 15 -160 33 -12 15 -34 -30 -38 -32 -2 -45 1 -45 10
0 10 -7 9 -30 -3 -36 -19 -53 -19 -89 0 -48 24 -66 111 -37 179 15 37 66 66
115 66 27 0 31 4 31 26 0 17 -6 28 -20 31 -11 3 -20 14 -20 24 0 16 8 19 55
19 l55 0 0 -154z m-580 109 c39 -20 58 -81 40 -126 -16 -38 -64 -69 -107 -69
-31 0 -33 -2 -33 -35 0 -28 4 -35 20 -35 13 0 20 -7 20 -20 0 -18 -7 -20 -75
-20 -62 0 -75 3 -75 16 0 9 9 18 20 21 19 5 20 14 20 118 0 105 -2 114 -20
120 -20 6 -26 25 -13 38 13 14 173 7 203 -8z m271 -81 c21 -19 44 -89 34 -104
-3 -6 -37 -10 -76 -10 -62 0 -69 -2 -69 -20 0 -11 10 -26 23 -34 19 -13 29
-13 61 -4 31 10 39 9 47 -3 5 -8 9 -17 9 -20 0 -11 -78 -39 -106 -39 -93 0
-147 119 -91 201 12 18 34 40 47 47 32 16 96 9 121 -14z m564 16 c3 -5 3 -25
-1 -45 -4 -25 -11 -35 -25 -35 -11 0 -19 7 -19 15 0 16 -9 19 -34 9 -12 -5
-16 -21 -16 -74 0 -59 2 -68 20 -73 11 -3 20 -12 20 -21 0 -13 -13 -16 -70
-16 -63 0 -70 2 -70 20 0 11 7 20 15 20 12 0 15 16 15 80 0 64 -3 80 -15 80
-8 0 -15 9 -15 20 0 17 7 20 45 20 25 0 45 -5 45 -10 0 -6 12 -4 28 4 31 18
68 20 77 6z m206 -6 c58 -30 77 -125 36 -185 -39 -58 -98 -74 -157 -44 -43 22
-63 68 -58 127 10 95 97 145 179 102z"/>
<path d="M1690 2470 c0 -20 -8 -35 -25 -46 -20 -13 -25 -24 -25 -60 0 -35 5
-47 25 -60 23 -15 25 -21 27 -127 l3 -112 243 -3 242 -2 0 220 0 220 -245 0
-245 0 0 -30z"/>
<path d="M2267 2408 l-56 -43 -1 -81 0 -82 53 -41 c30 -22 59 -41 65 -41 9 0
12 47 12 165 0 91 -4 165 -9 165 -4 0 -33 -19 -64 -42z"/>
</g>
</svg>
